<?xml version="1.0" encoding="utf-8"?>
<!-- Generator: Adobe Illustrator 17.0.0, SVG Export Plug-In . SVG Version: 6.00 Build 0)  -->
<!DOCTYPE svg PUBLIC "-//W3C//DTD SVG 1.1//EN" "http://www.w3.org/Graphics/SVG/1.1/DTD/svg11.dtd">
<svg version="1.1" id="Layer_1" xmlns="http://www.w3.org/2000/svg" xmlns:xlink="http://www.w3.org/1999/xlink" x="0px" y="0px"
	 width="40px" height="40px" viewBox="0 0 40 40" enable-background="new 0 0 40 40" xml:space="preserve">
<g id="g5760_1_" transform="translate(607.1265,725.0029)">
	<path id="path5762_1_" inkscape:connector-curvature="0" fill="#FFFFFF" d="M-581.832-705.087h-3.463v12.351h-5.134v-12.351h-2.441
		v-4.361h2.441v-2.826c0-2.022,0.961-5.18,5.181-5.18l3.801,0.015v4.236h-2.761c-0.45,0-1.088,0.225-1.088,1.187v2.568h3.913
		C-581.382-709.447-581.832-705.087-581.832-705.087z M-587.127-725.003c-11.045,0-20,8.956-20,20.001
		c0,11.045,8.955,19.999,20,19.999c11.046,0,20-8.954,20-19.999C-567.127-716.047-576.081-725.003-587.127-725.003"/>
</g>
</svg>
